<svg width="1920" height="1080" viewBox="0 0 1920 1080" fill="none" xmlns="http://www.w3.org/2000/svg">
<path d="M1462 0C1455.68 9.13697 1449.71 18.5439 1443.01 27.3809C1409.4 71.6663 1369.61 109.924 1327.41 145.872C1188.58 264.192 1073.71 402.467 982.808 560.694C949.171 619.465 916.734 678.925 883.238 737.756C857.756 782.521 829.715 825.636 795.63 864.494C739.439 928.592 671.307 974.677 589.525 999.419C515.337 1021.84 441.089 1019.16 367.211 997.16C304.855 978.586 248.295 948.286 195.332 910.988C122.953 860.005 60.0677 798.885 3.61751 730.918C2.45832 729.518 1.20915 728.189 0 726.829V0H1462Z" fill="url(#paint0_linear)"/>
<defs>
<linearGradient id="paint0_linear" x1="1375.29" y1="10.7979" x2="50.5285" y2="749.282" gradientUnits="userSpaceOnUse">
<stop stop-color="#D1FEFB"/>
<stop offset="0.505208" stop-color="#86D4FB"/>
<stop offset="1" stop-color="#9397FB"/>
</linearGradient>
</defs>
</svg>